<svg width="116" height="32" viewBox="0 0 116 32" fill="none" xmlns="http://www.w3.org/2000/svg">
<g clip-path="url(#clip0)">
<path fill-rule="evenodd" clip-rule="evenodd" d="M102.918 0.992188C103.371 1.01156 103.787 1.3188 104.166 1.45619L104.5 1.52019C104.536 1.56285 104.571 1.60552 104.607 1.64819L104.896 1.69619C104.962 1.74952 105.028 1.80285 105.094 1.85619C105.344 1.97811 105.544 2.00328 105.778 2.11219C106.404 2.40329 107.041 2.81046 107.634 3.16819L107.771 3.32819C110.128 4.76752 112.007 6.70368 113.505 9.04019C114.042 9.8762 114.42 10.8439 114.874 11.7602C114.9 11.8775 114.925 11.9949 114.95 12.1122C115.295 13.0009 115.584 14.1019 115.817 15.1362C115.848 15.4669 115.878 15.7975 115.909 16.1282C116.176 17.3858 115.984 19.3402 115.741 20.4162C115.658 20.786 115.674 21.0909 115.574 21.4402C115.076 23.1784 114.335 24.7756 113.338 26.0002C112.983 26.4359 112.729 26.9194 112.288 27.2642C112.091 27.4829 111.893 27.7016 111.695 27.9202C111.219 28.3148 110.742 28.7094 110.265 29.1042C110.078 29.2317 109.827 29.2868 109.657 29.4402C109.105 29.9394 108.047 30.4143 107.345 30.7522C107.193 30.7949 107.041 30.8376 106.889 30.8802C106.575 31.0231 106.226 31.117 105.885 31.2642C105.774 31.3119 105.719 31.3884 105.565 31.4082C103.897 30.2588 102.401 28.7125 101.443 26.8162C100.554 25.0565 100.603 22.465 101.124 20.3362C101.353 19.3965 101.779 18.4237 102.112 17.5842C102.649 16.2311 103.111 14.9228 103.679 13.6322C103.982 12.9443 104.148 12.2182 104.379 11.4722C104.434 11.2921 104.571 11.0669 104.622 10.8642C104.76 10.3203 104.817 9.70405 104.987 9.18419C105.002 8.99752 105.018 8.81086 105.033 8.62419C105.103 8.1755 105.109 7.63249 105.109 7.08819C105.109 5.55904 104.589 3.71172 103.998 2.78419C103.711 2.3332 103.457 1.85902 103.147 1.44019C103.055 1.31612 102.857 1.17182 102.918 0.992188ZM103.588 1.40819C103.567 1.41886 103.547 1.42952 103.527 1.44019V1.50419C103.679 1.61619 103.831 1.72819 103.983 1.84019C104.409 2.21352 104.835 2.58685 105.261 2.96019C105.486 3.1532 105.724 3.43436 105.9 3.68019C106.053 3.89438 106.335 4.02481 106.493 4.24019C106.793 4.64744 107.129 5.003 107.436 5.40819C107.572 5.58694 107.773 5.72659 107.908 5.90419C109.367 7.82483 110.639 10.0649 111.33 12.7682C111.431 13.1615 111.568 13.618 111.665 14.0322C111.752 14.4047 111.773 14.8074 111.863 15.1522C111.873 15.4135 111.883 15.6749 111.893 15.9362C112.085 17.2189 111.964 18.9712 111.741 20.1122C111.531 21.1877 111.275 22.277 110.904 23.2322C110.148 25.1791 109.172 26.958 108.029 28.5122C107.613 29.0788 107.132 29.5882 106.721 30.1602C106.513 30.3735 106.305 30.5868 106.098 30.8002C106.103 30.8269 106.108 30.8535 106.113 30.8802H106.189C106.725 30.2052 107.447 29.7277 107.953 29.0082C108.065 28.9015 108.176 28.7949 108.288 28.6882C108.543 28.3232 108.871 27.9983 109.109 27.6322C109.906 26.4058 110.685 25.129 111.285 23.6962C111.821 22.4151 112.077 21.0482 112.395 19.5042C112.405 19.3282 112.415 19.1522 112.425 18.9762C112.659 17.6453 112.56 15.5367 112.304 14.3202C111.573 10.8473 110.397 8.62419 108.668 6.24019C108.164 5.54419 107.63 4.91048 107.01 4.33619L106.782 4.00019C106.074 3.4182 105.442 2.69235 104.698 2.16019C104.361 1.91918 103.934 1.72009 103.664 1.40819H103.588ZM0 23.2802V23.1042C0.0613008 23.0978 0.0595059 23.0989 0.0912667 23.0722C0.432117 22.765 0.640555 22.2375 0.912667 21.8562C1.35898 21.2309 1.82669 20.6021 2.23603 19.9362C2.53519 19.5256 2.83434 19.115 3.13349 18.7042C4.32218 16.8805 5.60407 15.1448 6.81458 13.3602C7.47281 12.3898 8.11442 11.4309 8.77682 10.4802C8.98538 10.1809 9.30921 9.49852 9.59822 9.32819L13.0359 9.31219C13.3387 9.31209 13.944 9.20043 14.1311 9.36019H14.1616C14.065 9.90473 13.7582 10.4764 13.5835 10.9602C13.3239 11.6794 13.1379 12.3768 12.9142 13.0882C12.8324 13.3484 12.4453 14.1726 12.534 14.4162C12.8495 14.4762 15.0109 14.4904 15.2263 14.3682C15.5833 13.1345 16.0459 11.9536 16.428 10.7042C16.5605 10.271 16.785 9.85585 16.8843 9.37619C17.2242 9.21268 18.2829 9.32819 18.8162 9.32819H22.2843C22.7796 9.32819 23.4931 9.2283 23.8967 9.32819C23.9017 9.34419 23.9069 9.36019 23.9119 9.37619C23.9797 9.5703 23.8095 9.96153 23.7598 10.1122C23.7547 10.2349 23.7497 10.3575 23.7446 10.4802C23.6096 11.0266 23.5491 11.6807 23.3947 12.2242C23.0905 13.295 22.9845 14.522 22.771 15.6482C22.5404 16.8647 22.2204 18.086 22.0561 19.3602L22.0713 19.3762H22.117C22.3022 19.2536 22.3678 19.0872 22.5125 18.9282C23.1423 18.2355 23.7433 17.517 24.3682 16.8162C25.8893 15.1104 27.4619 13.4371 28.9468 11.6962C29.3284 11.2488 29.7282 10.818 30.0876 10.3522C30.1375 10.2875 30.2356 10.2684 30.2853 10.2082C30.4784 9.97435 30.7651 9.46595 31.0155 9.32819H38.1343C38.4622 9.32819 39.3166 9.24158 39.4881 9.34419C39.5083 13.9784 39.5286 18.6131 39.5489 23.2482C39.2191 23.409 38.1598 23.2962 37.6779 23.2962H33.2667C32.7824 23.2962 31.5092 23.401 31.2741 23.2322L31.3197 21.0242C31.289 20.7959 31.3667 20.6188 31.2741 20.4642H28.3231C27.9547 20.4642 27.3475 20.3645 27.0454 20.4962C26.8292 20.5904 26.7188 20.9271 26.6042 21.1362C26.2042 21.8668 25.671 22.5381 25.2352 23.2642C25.0488 23.3212 24.8052 23.2578 24.5812 23.2802C23.5622 23.2855 22.543 23.2908 21.5237 23.2962H15.6066C14.5364 23.2962 13.3226 23.2456 12.3514 23.3282C12.3159 23.2909 12.2804 23.2536 12.245 23.2162C12.7332 21.9208 13.1792 20.5229 13.6292 19.2162C13.8649 18.5317 13.987 17.8034 14.2832 17.1682C14.2731 17.1575 14.263 17.1469 14.2528 17.1362H12.3362C12.0533 17.1364 11.6982 17.0736 11.5148 17.2002C11.4673 17.5555 11.2645 17.8498 11.1802 18.1442V18.3682C11.1396 18.4269 11.099 18.4856 11.0585 18.5442C10.9604 18.826 10.8611 19.1138 10.7847 19.3602C10.5466 20.128 10.3705 20.8472 10.085 21.6002C9.91894 22.038 9.56997 22.709 9.56779 23.2482C9.55765 23.2535 9.54752 23.2589 9.53737 23.2642C9.24781 23.3317 8.82773 23.2962 8.4878 23.2962H6.44951C4.29989 23.2909 2.15005 23.2856 0 23.2802ZM31.4262 13.5842C30.9384 14.4106 30.3314 15.1691 29.8442 15.9842C29.4983 16.5631 29.1774 17.2144 28.7338 17.6962C28.7388 17.7335 28.744 17.7709 28.749 17.8082C28.7592 17.8242 28.7692 17.8402 28.7794 17.8562H30.7265C30.9598 17.8562 31.3069 17.9228 31.3958 17.7762C31.4843 17.5375 31.3919 17.1429 31.4566 16.8002C31.5778 16.1568 31.5022 15.335 31.5022 14.6242C31.5022 14.2823 31.5961 13.9131 31.5022 13.5842H31.4262Z" fill="#009241"/>
<path fill-rule="evenodd" clip-rule="evenodd" d="M90.5974 -0.000355248C93.5302 -0.0109632 96.3843 -0.0496672 98.7049 0.559645C99.5207 0.773821 100.263 0.875037 100.971 1.18364L101.382 1.27964C101.578 1.40747 102.015 2.20212 102.173 2.44764C102.235 2.54419 102.366 2.62508 102.432 2.71964C102.559 2.90424 102.603 3.12073 102.721 3.31164C103.481 4.54945 104.083 6.96257 103.633 9.05564C102.737 13.2284 100.865 16.2254 99.7697 20.1596C99.5336 21.0078 99.2253 22.764 99.3894 23.8236V24.2876C99.4502 24.523 99.436 24.8016 99.4959 25.1036C99.5545 25.3988 99.8027 25.8096 99.7241 26.1436C99.4005 26.1942 99.0928 26.4622 98.8266 26.5916C98.3293 26.8334 97.7919 27.064 97.2903 27.2636C95.7285 27.8854 94.0238 28.364 92.2706 28.7516C90.9454 29.0448 89.5449 29.1003 88.1484 29.3436L86.5816 29.3916C85.7539 29.5324 84.4597 29.5392 83.6003 29.3916C83.3316 29.3864 83.0629 29.381 82.7941 29.3756C82.297 29.2912 81.7407 29.2809 81.3034 29.1836C80.9687 29.1464 80.6341 29.109 80.2995 29.0716C79.2455 28.815 78.2011 28.5987 77.1812 28.2556C75.5992 27.7235 74.0945 26.92 72.8308 26.0316C72.4987 25.7982 72.1353 25.6041 71.8421 25.3276C71.5176 25.0217 71.1933 24.6452 70.8534 24.3676C70.5318 24.1049 70.1638 23.7515 69.9255 23.4076C69.6112 22.9331 69.2969 22.4584 68.9824 21.9836C68.8405 21.6904 68.6985 21.397 68.5565 21.1036H68.4956C68.2974 21.3652 68.0071 21.6224 67.7503 21.8236C67.4687 22.0443 67.2442 22.3862 66.9745 22.6236C66.6131 22.9419 66.2491 23.2232 65.8641 23.5196C65.0056 24.1806 64.1603 24.9515 63.2326 25.5356C62.3719 26.0777 61.4266 26.4795 60.5402 26.9916C60.2462 27.0929 59.9521 27.1943 59.658 27.2956C58.1557 27.9422 56.4271 28.2872 54.6383 28.6716C53.7124 28.8707 52.7593 28.7872 51.809 28.9596H51.0333C50.8001 28.9649 50.5669 28.9702 50.3336 28.9756C49.5097 29.0587 48.5353 29.0236 47.6412 29.0236H41.1613C37.5211 29.0184 33.8806 29.013 30.2397 29.0076C30.2347 28.9969 30.2295 28.9864 30.2245 28.9756C30.2491 28.504 30.5421 28.0132 30.6808 27.6156C30.7602 27.388 30.7526 27.0379 30.9394 26.9276H31.563C32.1172 26.9276 32.6169 26.936 33.1146 26.8316C34.0889 26.6273 34.6191 26.0916 35.0616 25.3276C35.1955 25.0966 35.2122 24.7987 35.3506 24.5916C36.5725 24.5969 37.7945 24.6023 39.0165 24.6076C39.6549 24.6076 40.3242 24.6982 40.8875 24.5916C40.9077 24.5649 40.9281 24.5384 40.9483 24.5116C40.9281 19.0936 40.9078 13.6749 40.8875 8.25564C40.8885 7.54969 41.296 6.97854 41.4655 6.41564C41.6076 5.94395 41.6926 5.54766 41.861 5.10364C41.9779 4.79543 42.2481 4.0423 42.0283 3.63164C41.6106 2.85124 40.8043 3.06441 39.8379 2.91164C39.5776 2.87051 39.2037 2.986 39.0013 2.89564C38.9769 2.74524 39.5334 1.07632 39.6402 0.847645L50.6226 0.831645C55.3856 0.831645 60.7533 0.534237 64.7081 1.43964L65.3317 1.50364C66.0597 1.69812 66.9038 1.95272 67.5525 2.23964L68.0241 2.36764L68.1154 2.47964C68.4559 2.69278 68.837 2.76326 69.1649 2.99164C70.5092 3.93001 71.616 5.19854 72.3897 6.68764C72.4657 6.70491 72.5292 6.70204 72.5874 6.67164C72.7 6.41697 73.0804 6.20139 73.2871 6.03164C73.8134 5.59964 74.344 5.20345 74.9147 4.79964C76.9331 3.37176 79.3405 2.35662 81.927 1.51964C82.8018 1.23659 83.7486 1.09115 84.6194 0.831645L84.9845 0.815645C86.2502 0.490845 87.6461 0.419661 89.0154 0.191645C89.3367 0.138157 90.4863 0.174557 90.5974 -0.000355248ZM90.9168 2.73564L90.1867 2.78364C89.8995 2.86641 89.5481 2.88924 89.2132 2.97564C88.8677 3.0647 88.4383 3.24108 88.118 3.34364L87.829 3.35964C87.6338 3.42803 87.3573 3.63804 87.1597 3.72764C86.2418 4.14364 85.4171 4.54595 84.6651 5.13564C84.4723 5.31164 84.2797 5.48764 84.087 5.66364C82.3572 7.0491 81.0056 8.83518 79.8431 10.8156C79.4776 11.4385 79.278 12.1154 78.9609 12.7836C78.7581 13.2108 78.4746 13.8788 78.3372 14.3356C78.1005 15.1229 77.97 15.9689 77.7592 16.8156C77.744 17.0609 77.7288 17.3063 77.7136 17.5516C77.5644 18.2204 77.5052 19.5356 77.6984 20.2076C77.7085 20.4424 77.7187 20.677 77.7288 20.9116C77.8622 21.4449 78.0096 22.0793 78.2003 22.5916C78.8547 24.3488 80.1998 25.6497 81.8358 26.3836C84.2466 27.4652 87.8089 27.2091 89.7608 25.8876C89.8622 25.8504 89.9636 25.813 90.065 25.7756C90.7531 25.3545 91.5096 24.8595 92.0881 24.3036C92.9242 23.5001 93.7377 22.6812 94.4762 21.7756C96.0104 19.8942 97.0887 17.5494 98.0204 15.0396C98.357 14.1331 98.471 13.11 98.6897 12.1116C98.9028 11.1389 98.8792 9.68035 98.7201 8.71964C98.2314 5.76902 97.0344 4.14729 94.6588 3.19964C94.0292 2.94844 93.2584 2.86099 92.5444 2.73564H90.9168ZM54.6383 3.35964L53.4366 3.69564C53.1738 3.79704 53.0139 4.02316 52.813 4.17564L52.6761 4.22364C52.6659 4.27164 52.6558 4.31964 52.6457 4.36764C52.5215 4.58475 52.3057 4.8238 52.2197 5.07164C52.1247 5.34563 52.1078 5.57643 51.9916 5.83964C51.4145 7.14705 51.1064 8.58713 50.6074 9.96764C49.6389 12.6465 48.697 15.3731 47.8542 18.1436C47.6462 18.8272 47.3061 19.5571 47.0936 20.2236C46.64 21.6462 46.1589 23.0152 45.7094 24.3996C45.3903 25.3824 45.4319 26.0928 46.3178 26.3996C46.4598 26.4049 46.6017 26.4102 46.7437 26.4156C46.8662 26.4369 47.0145 26.488 47.1088 26.5116H47.8389C48.3114 26.5888 49.0898 26.5784 49.5122 26.4796C49.7606 26.4744 50.009 26.469 50.2575 26.4636C51.0696 26.2944 51.9505 26.3697 52.6761 26.1116C52.9195 26.0689 53.1628 26.0263 53.4062 25.9836C54.15 25.7249 55.0043 25.5289 55.6727 25.1516C56.5547 24.653 57.4034 24.0917 58.2129 23.4716C58.5774 23.1936 58.8836 22.7905 59.2321 22.4956C60.0453 21.8076 60.8467 20.9776 61.4529 20.0796C61.9357 19.3644 62.2883 18.6176 62.7306 17.8396C63.1258 17.1446 63.5589 16.2801 63.8106 15.4716C64.0509 14.6998 64.3451 13.9265 64.6016 13.1836C64.8556 12.4477 64.9426 11.5941 65.1188 10.8316C65.1238 10.6023 65.1289 10.373 65.134 10.1436C65.4612 8.45612 64.5161 6.76651 63.8867 5.83964C63.7064 5.57404 63.544 5.25835 63.3086 5.05564C61.3809 3.39531 58.177 3.35804 54.6383 3.35964ZM90.9168 4.38364C93.1401 4.356 95.0034 4.70027 95.9365 5.99964C96.0682 6.18316 96.8598 7.24812 96.7275 7.48764C96.7173 7.48231 96.7072 7.47697 96.697 7.47164C96.6006 7.26569 96.3898 7.08686 96.2559 6.91164C95.4554 5.86414 94.4464 5.64833 92.9399 5.34364C92.4356 5.24166 91.5639 5.19004 91.0385 5.29564C90.3251 5.43892 89.5375 5.61481 88.9242 5.83964L88.6199 5.88764C88.3753 5.99942 88.112 6.1626 87.829 6.27164C87.6204 6.35199 87.3804 6.55652 87.1901 6.67164C86.4175 7.13916 85.7698 7.61532 85.091 8.15964C84.9764 8.25153 84.8312 8.5054 84.7411 8.57564C84.0773 9.09361 83.6502 9.78225 83.0983 10.4156C81.7987 11.9073 81.0015 13.9129 80.2538 15.9836C80.1169 16.5489 79.98 17.1143 79.8431 17.6796C79.8229 17.9249 79.8026 18.1703 79.7823 18.4156C79.6296 18.9491 79.6014 20.2534 79.7062 20.8476C79.7417 21.1409 79.7772 21.4343 79.8127 21.7276C79.8602 21.9001 80.017 22.1758 79.9648 22.4156C79.9546 22.4104 79.9446 22.4049 79.9344 22.3996C79.8813 22.2384 79.6807 21.9222 79.6302 21.7756C79.5059 21.4153 79.4374 21.0123 79.3716 20.6556C78.9995 18.6408 79.4917 16.542 79.904 14.9916C80.8052 11.6022 83.1353 8.35663 85.5321 6.52764C85.9159 6.23473 86.3419 5.99857 86.7338 5.72764C87.3758 5.28375 88.5691 4.82649 89.3957 4.60764C89.7378 4.51705 90.0104 4.4895 90.3388 4.43164L90.9168 4.38364ZM52.5696 4.89564C52.5798 4.90631 52.5898 4.91697 52.6 4.92764H52.5544C52.5594 4.91697 52.5646 4.90631 52.5696 4.89564ZM54.6383 5.02364C57.9314 4.99899 61.4143 4.81809 62.6698 6.94364C62.8608 7.26715 63.1579 7.61334 63.2478 8.03164L63.2022 8.06364C63.1514 7.92993 63.0123 7.81876 62.9284 7.71164C62.7798 7.5219 62.6695 7.27095 62.4872 7.11964C61.396 6.21361 59.1738 5.88764 57.2394 5.88764C56.3353 5.88764 54.9731 5.76327 54.4254 6.14364C54.086 6.37927 54.034 7.10331 53.8625 7.51964C53.3922 8.66204 52.9998 9.92788 52.6457 11.1356C52.2044 12.6406 51.6002 14.2034 51.0789 15.6636C50.515 17.2433 50.08 18.8454 49.497 20.3676C49.4817 20.4689 49.4665 20.5703 49.4513 20.6716C49.1705 21.6009 48.7836 22.5672 48.4626 23.4876C48.2971 23.9622 48.2159 24.4971 47.9758 24.8956C47.7731 24.8904 47.5703 24.885 47.3674 24.8796C47.3522 24.8529 47.337 24.8264 47.3218 24.7996C47.2836 24.6046 47.7305 23.6088 47.8237 23.3756C48.2242 22.3734 48.4513 21.3414 48.8125 20.3356C49.6358 18.043 50.359 15.6488 51.1854 13.3756C51.7013 11.9563 52.0451 10.4908 52.6152 9.13564C52.7015 8.83698 52.7877 8.53831 52.8738 8.23964C53.0141 7.72878 53.2466 7.16876 53.4366 6.68764C53.6128 6.24156 53.6505 5.52604 53.9842 5.24764L54.6383 5.02364ZM72.9069 5.95164H72.9373L72.8916 6.01564C72.8815 6.01031 72.8714 6.00497 72.8612 5.99964V5.98364L72.9069 5.95164ZM53.2997 9.95164H53.3302C53.32 9.96764 53.3099 9.98364 53.2997 9.99964V9.95164ZM79.6758 11.6156C79.686 11.6316 79.696 11.6476 79.7062 11.6636C79.696 11.6476 79.686 11.6316 79.6758 11.6156ZM97.6249 15.1516C97.6503 15.157 97.6756 15.1623 97.701 15.1676V15.2316H97.6706L97.6249 15.2476C97.6147 15.2316 97.6047 15.2156 97.5945 15.1996C97.6047 15.1836 97.6147 15.1676 97.6249 15.1516ZM68.0849 23.7916H68.1914C69.3575 25.4539 70.9308 26.9608 72.7547 27.9196C73.0488 28.1116 73.3429 28.3036 73.637 28.4956C74.367 28.8427 75.0933 29.1793 75.8274 29.5036C76.4506 29.779 77.1386 29.8968 77.7592 30.1596C78.0076 30.2129 78.2561 30.2662 78.5045 30.3196C79.1737 30.5123 79.9657 30.6601 80.6797 30.7996L81.3034 30.8476C81.793 30.9736 82.3587 30.9481 82.9006 31.0396C83.1692 31.0449 83.4379 31.0502 83.7067 31.0556C84.1533 31.1348 84.8512 31.1664 85.3191 31.0876C86.1354 31.0664 86.9517 31.045 87.7681 31.0236C88.934 30.8273 90.1226 30.8444 91.2515 30.6076C91.958 30.4595 92.6955 30.3761 93.4114 30.1916C94.4876 29.9144 95.6145 29.5553 96.621 29.2156C97.0064 29.0856 97.3932 28.9513 97.7314 28.7996C97.8481 28.7729 97.9647 28.7462 98.0813 28.7196C98.6263 28.4497 99.1862 28.2011 99.7545 27.9516C99.9184 27.8796 100.166 27.6064 100.393 27.6956C100.46 27.7355 100.811 28.376 100.834 28.4796C100.528 28.7161 100.172 28.8313 99.8001 29.0076C99.1065 29.3363 98.3537 29.6897 97.6097 29.9676C97.3823 30.0526 97.1427 30.1569 96.9404 30.2076L96.621 30.2556C95.762 30.6576 94.7543 30.8296 93.7461 31.0716C91.457 31.6212 88.9272 31.9995 86.1253 31.9996H83.2808C82.8533 31.7337 81.928 31.9584 81.4099 31.7756C80.8314 31.5716 80.1635 31.5651 79.5541 31.4396C78.7683 31.2209 77.9824 31.0022 77.1964 30.7836C75.194 30.1643 73.5082 29.0846 71.8725 28.0796C71.8218 28.0209 71.7711 27.9622 71.7204 27.9036C71.0727 27.4563 70.5382 26.9268 69.9559 26.4156C69.4037 25.931 69.0413 25.2443 68.5413 24.7036C68.5261 24.7089 68.5108 24.7144 68.4956 24.7196L68.0545 25.1356C67.9835 25.1729 67.9125 25.2103 67.8416 25.2476C67.2746 25.9459 66.4187 26.3244 65.7424 26.9116C64.9738 27.5792 64.0847 28.0132 63.187 28.5596C63.016 28.6636 62.8153 28.8241 62.6241 28.9116C62.3043 29.0582 61.9991 29.2334 61.6963 29.3596L61.4529 29.4076C61.2784 29.5064 61.0087 29.6763 60.814 29.7436C59.7092 30.1257 58.5848 30.4467 57.4372 30.7996C57.1938 30.8369 56.9504 30.8742 56.707 30.9116C55.9297 31.1508 54.9869 31.2315 54.1516 31.3756C53.6294 31.4184 53.1071 31.461 52.5848 31.5036H51.9155C51.0172 31.6803 49.7385 31.5836 48.6756 31.5836H29.5552C29.526 31.5614 29.5461 31.582 29.5248 31.5516C29.4242 31.3379 29.6496 30.9195 29.7073 30.7036C30.0044 30.5638 30.6305 30.6556 31.0154 30.6556H48.9646L51.2767 30.6076H51.8547L53.7713 30.4156C53.9184 30.4104 54.0654 30.405 54.2124 30.3996C54.6123 30.2944 55.0549 30.2844 55.5053 30.1916C56.6818 29.9491 57.8698 29.7121 58.9735 29.3436C61.448 28.5172 63.6161 27.3032 65.5143 25.8716C66.404 25.2008 67.3092 24.5796 68.0849 23.7916ZM98.8266 26.7516H98.857C98.8359 26.7824 98.8555 26.7612 98.8266 26.7836V26.7516Z" fill="#E21C2B"/>
</g>
<defs>
<clipPath id="clip0">
<rect width="116" height="32" fill="white"/>
</clipPath>
</defs>
</svg>
