<svg width="612" height="157" viewBox="0 0 612 157" fill="none" xmlns="http://www.w3.org/2000/svg">
<path d="M266.596 157C260.027 157 257.087 151.371 257.087 145.792V11.208C257.086 5.6295 260.026 0 266.595 0C268.721 0 270.926 0.651 273.15 1.935L389.704 69.225C393.651 71.5045 395.914 74.8845 395.914 78.4995C395.914 82.1145 393.651 85.4945 389.704 87.7735L273.149 155.066C270.926 156.349 268.721 157 266.596 157ZM266.595 7C264.412 7 264.086 9.636 264.086 11.208V145.792C264.086 147.364 264.412 150 266.595 150C267.201 150 268.223 149.827 269.649 149.003L386.204 81.7115C387.901 80.732 388.914 79.531 388.914 78.4995C388.914 77.468 387.901 76.267 386.203 75.287L269.649 7.997C268.223 7.173 267.201 7 266.595 7Z" fill="#E21C2B"/>
<path d="M68.6029 95.56C63.7029 100.46 57.7063 102.91 50.6129 102.91C43.5196 102.91 37.4996 100.46 32.5529 95.56C27.6529 90.6133 25.2029 84.5933 25.2029 77.5C25.2029 70.4067 27.6529 64.41 32.5529 59.51C37.4996 54.5633 43.5196 52.09 50.6129 52.09C57.7063 52.09 63.7029 54.5633 68.6029 59.51C73.5496 64.41 76.0229 70.4067 76.0229 77.5C76.0229 84.5933 73.5496 90.6133 68.6029 95.56ZM38.2229 90.1C41.5829 93.4133 45.7129 95.07 50.6129 95.07C55.5129 95.07 59.6196 93.4133 62.9329 90.1C66.2929 86.74 67.9729 82.54 67.9729 77.5C67.9729 72.46 66.2929 68.2833 62.9329 64.97C59.6196 61.61 55.5129 59.93 50.6129 59.93C45.7129 59.93 41.5829 61.61 38.2229 64.97C34.9096 68.2833 33.2529 72.46 33.2529 77.5C33.2529 82.54 34.9096 86.74 38.2229 90.1ZM129.916 53H137.966V102H129.916V80.79H108.916V102H100.866V53H108.916V73.09H129.916V53ZM179.68 102L176.25 92.13H155.39L151.96 102H143.21L160.99 53H170.65L188.36 102H179.68ZM158.05 84.57H173.59L165.82 62.45L158.05 84.57ZM229.679 53V102H221.629V60.7H201.679V102H193.629V53H229.679ZM280.449 95.56C275.549 100.46 269.552 102.91 262.459 102.91C255.365 102.91 249.345 100.46 244.399 95.56C239.499 90.6133 237.049 84.5933 237.049 77.5C237.049 70.4067 239.499 64.41 244.399 59.51C249.345 54.5633 255.365 52.09 262.459 52.09C269.552 52.09 275.549 54.5633 280.449 59.51C285.395 64.41 287.869 70.4067 287.869 77.5C287.869 84.5933 285.395 90.6133 280.449 95.56ZM250.069 90.1C253.429 93.4133 257.559 95.07 262.459 95.07C267.359 95.07 271.465 93.4133 274.779 90.1C278.139 86.74 279.819 82.54 279.819 77.5C279.819 72.46 278.139 68.2833 274.779 64.97C271.465 61.61 267.359 59.93 262.459 59.93C257.559 59.93 253.429 61.61 250.069 64.97C246.755 68.2833 245.099 72.46 245.099 77.5C245.099 82.54 246.755 86.74 250.069 90.1ZM288.419 102V94.58C291.499 95 293.785 94.2533 295.279 92.34C296.819 90.4267 297.589 86.7633 297.589 81.35V53H330.419V102H322.369V60.7H305.639V81.21C305.639 85.5033 305.172 89.12 304.239 92.06C303.352 95 302.069 97.2167 300.389 98.71C298.709 100.157 296.889 101.137 294.929 101.65C293.015 102.117 290.845 102.233 288.419 102ZM369.242 53H377.292V102H369.242V80.79H348.242V102H340.192V53H348.242V73.09H369.242V53ZM416.487 102V68.75L393.387 102H387.087V53H395.137V86.25L418.237 53H424.537V102H416.487ZM466.173 53V60.7H452.383V102H444.333V60.7H430.473V53H466.173ZM480.176 94.3H501.876V102H472.126V53H501.526V60.7H480.176V73.44H499.776V81.07H480.176V94.3ZM505.255 102V94.58C508.335 95 510.621 94.2533 512.115 92.34C513.655 90.4267 514.425 86.7633 514.425 81.35V53H547.255V102H539.205V60.7H522.475V81.21C522.475 85.5033 522.008 89.12 521.075 92.06C520.188 95 518.905 97.2167 517.225 98.71C515.545 100.157 513.725 101.137 511.765 101.65C509.851 102.117 507.681 102.233 505.255 102ZM565.078 94.3H586.778V102H557.028V53H586.428V60.7H565.078V73.44H584.678V81.07H565.078V94.3Z" fill="white"/>
<rect x="257" y="25" width="7" height="110" fill="#E21C2B"/>
</svg>
