<svg width="28" height="42" viewBox="0 0 28 42" fill="none" xmlns="http://www.w3.org/2000/svg">
<path d="M14 0C6.28022 0 0 6.27762 0 13.9932V28.0076C0 35.723 6.28022 42 14 42C21.7198 42 28 35.7232 28 28.0076V13.9932C28 6.27762 21.7196 0 14 0ZM26.4445 28.0076C26.4445 34.8655 20.8619 40.4445 14 40.4445C7.13813 40.4445 1.55553 34.8655 1.55553 28.0076V13.9932C1.55553 7.13533 7.13813 1.55553 14 1.55553C20.8619 1.55553 26.4445 7.13513 26.4445 13.9932V28.0076Z" fill="#D3D3D3"/>
<path d="M14 4.66663C13.5704 4.66663 13.2221 5.01454 13.2221 5.44449V12.4878C13.2221 12.9178 13.5704 13.2657 14 13.2657C14.4296 13.2657 14.7779 12.9178 14.7779 12.4878V5.44449C14.7777 5.01454 14.4296 4.66663 14 4.66663Z" fill="#D3D3D3"/>
</svg>
