<svg width="139" height="157" viewBox="0 0 139 157" fill="none" xmlns="http://www.w3.org/2000/svg">
<path d="M9.59555 157C3.02655 157 0.0865479 151.371 0.0865479 145.792V11.208C0.0860479 5.6295 3.02605 0 9.59455 0C11.721 0 13.926 0.651 16.1495 1.935L132.704 69.225C136.651 71.5045 138.914 74.8845 138.914 78.4995C138.914 82.1145 136.651 85.4945 132.704 87.7735L16.149 155.066C13.926 156.349 11.7211 157 9.59555 157ZM9.59455 7C7.41205 7 7.08605 9.636 7.08605 11.208V145.792C7.08605 147.364 7.41205 150 9.59505 150C10.2005 150 11.2225 149.827 12.649 149.003L129.204 81.7115C130.901 80.732 131.914 79.531 131.914 78.4995C131.914 77.468 130.901 76.267 129.203 75.287L12.649 7.997C11.2225 7.173 10.2005 7 9.59455 7Z" fill="#E21C2B"/>
</svg>
