<svg width="73" height="76" viewBox="0 0 73 76" fill="none" xmlns="http://www.w3.org/2000/svg">
<path d="M63.6008 30.4999H57.25V29.2499C57.2498 28.0336 56.8949 26.8438 56.2289 25.826C55.5628 24.8082 54.6145 24.0067 53.5 23.5196V14.2499C53.5 13.9184 53.3683 13.6005 53.1339 13.366C52.8995 13.1316 52.5815 12.9999 52.25 12.9999H48.9219L53.3423 5.0429C53.4265 4.89144 53.4782 4.72415 53.4943 4.55164C53.5103 4.37912 53.4903 4.20516 53.4356 4.04078C53.3808 3.8764 53.2925 3.72521 53.1762 3.59678C53.0599 3.46836 52.9182 3.36551 52.76 3.29477L52.3442 3.10884L46.7523 0.608837C46.4668 0.48119 46.1438 0.465228 45.8471 0.5641C45.5503 0.662972 45.3014 0.869494 45.1495 1.1429L38.5625 12.9999H22.25C21.9185 12.9999 21.6005 13.1316 21.3661 13.366C21.1317 13.6005 21 13.9184 21 14.2499V23.5234C19.8863 24.0105 18.9386 24.8115 18.2726 25.8285C17.6067 26.8454 17.2513 28.0343 17.25 29.2499V51.7499H19.75V51.3298C20.4171 51.6452 21.1531 51.7869 21.8896 51.7417C22.6261 51.6965 23.3392 51.466 23.9628 51.0714C24.5863 50.6768 25.1 50.1311 25.4562 49.4848C25.8124 48.8386 25.9994 48.1128 26 47.3749V42.3749C26 41.8776 26.1975 41.4007 26.5492 41.0491C26.9008 40.6975 27.3777 40.4999 27.875 40.4999C28.3723 40.4999 28.8492 40.6975 29.2008 41.0491C29.5525 41.4007 29.75 41.8776 29.75 42.3749V52.3749C29.75 53.5352 30.2109 54.648 31.0314 55.4685C31.8519 56.289 32.9647 56.7499 34.125 56.7499C35.2853 56.7499 36.3981 56.289 37.2186 55.4685C38.0391 54.648 38.5 53.5352 38.5 52.3749V38.6249C38.5 38.1276 38.6975 37.6507 39.0492 37.2991C39.4008 36.9475 39.8777 36.7499 40.375 36.7499C40.8723 36.7499 41.3492 36.9475 41.7008 37.2991C42.0525 37.6507 42.25 38.1276 42.25 38.6249V44.8749C42.25 46.0352 42.7109 47.148 43.5314 47.9685C44.3519 48.789 45.4647 49.2499 46.625 49.2499C47.7853 49.2499 48.8981 48.789 49.7186 47.9685C50.5391 47.148 51 46.0352 51 44.8749V42.3749C51 41.8776 51.1975 41.4007 51.5492 41.0491C51.9008 40.6975 52.3777 40.4999 52.875 40.4999C53.3723 40.4999 53.8492 40.6975 54.2008 41.0491C54.5525 41.4007 54.75 41.8776 54.75 42.3749V69.2499C54.7489 70.2441 54.3534 71.1973 53.6504 71.9003C52.9474 72.6034 51.9942 72.9988 51 72.9999H29.75V75.4999H51C52.657 75.4981 54.2457 74.839 55.4174 73.6673C56.5891 72.4956 57.2481 70.907 57.25 69.2499V67.9999H63.6008C65.8939 67.9973 68.0924 67.0852 69.7138 65.4638C71.3353 63.8423 72.2474 61.6438 72.25 59.3507V39.1491C72.2474 36.856 71.3353 34.6576 69.7138 33.0361C68.0924 31.4146 65.8939 30.5025 63.6008 30.4999ZM51 15.4999V17.9999H48.5V20.4999H51V22.9999H43.3666L47.5333 15.4999H51ZM42.8109 10.4999H47.4516L46.0625 12.9999H41.4219L42.8109 10.4999ZM45.5888 5.49993H50.2286L48.8395 7.99993H44.1998L45.5888 5.49993ZM43.2844 17.9999H38.6438L40.0327 15.4999H44.6723L43.2844 17.9999ZM37.2556 20.4999H41.8955L40.5067 22.9999H35.8661L37.2556 20.4999ZM23.5 20.4999H32.25V17.9999H23.5V15.4999H37.173L33.0066 22.9999H23.5V20.4999ZM52.875 37.9999C51.7148 38.0002 50.6021 38.4612 49.7817 39.2817C48.9613 40.1021 48.5003 41.2147 48.5 42.3749V44.8749C48.5 45.3722 48.3025 45.8491 47.9508 46.2008C47.5992 46.5524 47.1223 46.7499 46.625 46.7499C46.1277 46.7499 45.6508 46.5524 45.2992 46.2008C44.9475 45.8491 44.75 45.3722 44.75 44.8749V38.6249C44.75 37.4646 44.2891 36.3518 43.4686 35.5313C42.6481 34.7109 41.5353 34.2499 40.375 34.2499C39.2147 34.2499 38.1019 34.7109 37.2814 35.5313C36.4609 36.3518 36 37.4646 36 38.6249V52.3749C36 52.8722 35.8025 53.3491 35.4508 53.7007C35.0992 54.0524 34.6223 54.2499 34.125 54.2499C33.6277 54.2499 33.1508 54.0524 32.7992 53.7007C32.4475 53.3491 32.25 52.8722 32.25 52.3749V42.3749C32.25 41.2146 31.7891 40.1018 30.9686 39.2813C30.1481 38.4609 29.0353 37.9999 27.875 37.9999C26.7147 37.9999 25.6019 38.4609 24.7814 39.2813C23.9609 40.1018 23.5 41.2146 23.5 42.3749V47.3749C23.5 47.8722 23.3025 48.3491 22.9508 48.7008C22.5992 49.0524 22.1223 49.2499 21.625 49.2499C21.1277 49.2499 20.6508 49.0524 20.2992 48.7008C19.9475 48.3491 19.75 47.8722 19.75 47.3749V29.2499C19.7511 28.2557 20.1466 27.3025 20.8496 26.5995C21.5526 25.8965 22.5058 25.501 23.5 25.4999H51C51.4925 25.4998 51.9802 25.5966 52.4353 25.785C52.8903 25.9734 53.3038 26.2497 53.652 26.5979C54.0003 26.9462 54.2765 27.3596 54.4649 27.8147C54.6533 28.2697 54.7502 28.7574 54.75 29.2499V38.4229C54.1644 38.1438 53.5237 37.9993 52.875 37.9999ZM57.25 39.2499H63.5V59.2499H57.25V39.2499ZM69.75 59.3507C69.7481 60.981 69.0997 62.544 67.9469 63.6968C66.7941 64.8496 65.2311 65.4981 63.6008 65.4999H57.25V61.7499H63.5C64.1628 61.7491 64.7982 61.4855 65.2669 61.0168C65.7356 60.5482 65.9992 59.9127 66 59.2499V39.2499C65.9992 38.5871 65.7356 37.9517 65.2669 37.483C64.7982 37.0144 64.1628 36.7507 63.5 36.7499H57.25V32.9999H63.6008C65.2311 33.0018 66.7941 33.6502 67.9469 34.803C69.0997 35.9558 69.7481 37.5188 69.75 39.1491V59.3507Z" fill="#E21C2B"/>
<path d="M22.9889 57.3184C22.2354 56.3111 21.2824 55.4699 20.1894 54.8472L19.7841 54.6155C18.1125 53.661 16.1841 53.2536 14.2692 53.4504C12.3544 53.6472 10.5492 54.4384 9.10672 55.713L9.73297 51.9555L7.26703 51.5445L6.29984 57.3477C4.51163 55.516 3.50733 53.0598 3.5 50.5H1C1.00514 52.1898 1.35675 53.8607 2.03311 55.4092C2.70947 56.9578 3.6962 58.3513 4.93234 59.5034L0.21875 63.2739L1.78125 65.2261L4.48516 63.0625C3.96433 64.456 3.78874 65.955 3.97341 67.4312C4.15808 68.9074 4.69752 70.3169 5.54559 71.5392C6.39366 72.7615 7.52514 73.7602 8.84328 74.45C10.1614 75.1398 11.627 75.5 13.1147 75.5H20.5573C22.0493 75.5 23.5118 75.0846 24.781 74.3002C26.0501 73.5158 27.0758 72.3935 27.743 71.059C28.4103 69.7246 28.6927 68.2307 28.5587 66.7447C28.4247 65.2588 27.8796 63.8395 26.9844 62.6459L22.9889 57.3184ZM25.507 69.9409C25.0502 70.8624 24.3443 71.6373 23.4695 72.178C22.5946 72.7187 21.5858 73.0035 20.5573 73H13.1147C11.9389 72.9999 10.7837 72.691 9.76478 72.1042C8.74587 71.5173 7.89896 70.6732 7.30883 69.6562C6.71869 68.6392 6.40602 67.485 6.40211 66.3092C6.3982 65.1334 6.7032 63.9771 7.28656 62.9562L7.51031 62.5647L9.8825 67.3091L12.1184 66.1909L9.2725 60.5H14.75V58H10.3356C11.1808 57.1039 12.2577 56.4595 13.4469 56.1381C14.0259 55.9797 14.6234 55.8992 15.2237 55.8987C16.3888 55.8997 17.5334 56.2056 18.5436 56.7859L18.9491 57.0178C19.7454 57.4715 20.4397 58.0844 20.9887 58.8183L24.9844 64.1464C25.6042 64.967 25.9816 65.9448 26.074 66.969C26.1664 67.9931 25.97 69.0227 25.507 69.9409Z" fill="#E21C2B"/>
<path d="M18.5 60.5H16V63H18.5V60.5Z" fill="#E21C2B"/>
<path d="M22.25 65.5H19.75V68H22.25V65.5Z" fill="#E21C2B"/>
<path d="M16 66.75H13.5V69.25H16V66.75Z" fill="#E21C2B"/>
</svg>
