<svg width="24" height="20" viewBox="0 0 24 20" fill="none" xmlns="http://www.w3.org/2000/svg">
<path d="M23.7186 5.30514C23.4643 3.21059 21.827 1.53572 19.7368 1.23232C14.5943 0.485794 9.38914 0.485062 4.26566 1.23012C2.17478 1.53426 0.536714 3.20894 0.28238 5.30294C-0.0966488 8.42178 -0.0937191 11.5891 0.290803 14.7166C0.5477 16.8058 2.1854 18.4769 4.27354 18.7801C9.38768 19.5231 14.5873 19.5237 19.7282 18.7781C21.8154 18.4754 23.4526 16.8045 23.7097 14.7149C24.094 11.5882 24.0971 8.42233 23.7186 5.30514ZM21.8486 14.4862C21.6946 15.7391 20.712 16.7408 19.4592 16.9225C14.5009 17.6415 9.48235 17.6423 4.54307 16.9247C3.28916 16.7425 2.30588 15.7405 2.15189 14.4879C1.78586 11.5111 1.78311 8.49704 2.14365 5.52908C2.29636 4.27315 3.27982 3.26827 4.53538 3.08571C9.47575 2.36721 14.4994 2.36666 19.4675 3.08791C20.7219 3.2701 21.7047 4.2748 21.8572 5.53109C22.2174 8.4974 22.2144 11.5104 21.8486 14.4862ZM16.8101 9.16592L9.43492 5.47836C8.81273 5.16726 8.07811 5.62008 8.07811 6.31698V13.6921C8.07811 14.3907 8.81419 14.8411 9.43492 14.5307L16.8101 10.8432C17.4996 10.4984 17.5004 9.51126 16.8101 9.16592ZM9.95311 12.1753V7.83401L14.2945 10.0045L9.95311 12.1753Z" fill="white"/>
</svg>
