<svg width="130" height="70" viewBox="0 0 130 70" fill="none" xmlns="http://www.w3.org/2000/svg">
<rect width="130" height="70" fill="white"/>
<g clip-path="url(#clip0)">
<path fill-rule="evenodd" clip-rule="evenodd" d="M96.6399 24.7129C96.9635 24.7268 97.2614 24.9476 97.5324 25.0464L97.7718 25.0924C97.7972 25.1231 97.8226 25.1537 97.848 25.1844L98.0548 25.2189C98.1019 25.2572 98.1491 25.2956 98.1963 25.3339C98.3752 25.4215 98.5186 25.4396 98.6861 25.5179C99.1338 25.7271 99.5895 26.0198 100.014 26.2769L100.112 26.3919C101.798 27.4264 103.143 28.818 104.215 30.4974C104.599 31.0983 104.869 31.7938 105.195 32.4524C105.213 32.5367 105.231 32.6211 105.249 32.7054C105.496 33.3442 105.702 34.1355 105.869 34.8789C105.891 35.1166 105.913 35.3542 105.935 35.5919C106.126 36.4958 105.988 37.9005 105.815 38.6739C105.755 38.9397 105.767 39.1588 105.695 39.4099C105.339 40.6593 104.809 41.8072 104.095 42.6874C103.841 43.0005 103.66 43.3481 103.344 43.5959C103.203 43.7531 103.061 43.9103 102.92 44.0674C102.579 44.351 102.238 44.6346 101.897 44.9184C101.763 45.01 101.583 45.0496 101.461 45.1599C101.067 45.5187 100.31 45.86 99.8071 46.1029C99.6983 46.1336 99.5894 46.1643 99.4806 46.1949C99.2566 46.2976 99.0064 46.3651 98.7623 46.4709C98.6832 46.5052 98.6438 46.5601 98.5337 46.5744C97.3403 45.7482 96.2695 44.6369 95.5842 43.2739C94.9481 42.0091 94.9835 40.1465 95.3556 38.6164C95.5199 37.941 95.8247 37.2418 96.0631 36.6384C96.4472 35.6658 96.7778 34.7255 97.1841 33.7979C97.4007 33.3035 97.5197 32.7816 97.6848 32.2454C97.7246 32.1159 97.822 31.9541 97.8589 31.8084C97.9578 31.4175 97.9981 30.9745 98.1201 30.6009C98.131 30.4667 98.1419 30.3326 98.1528 30.1984C98.2028 29.8759 98.2072 29.4856 98.2072 29.0944C98.2073 27.9953 97.8351 26.6676 97.4127 26.0009C97.2073 25.6767 97.0253 25.3359 96.8032 25.0349C96.7373 24.9457 96.5963 24.842 96.6399 24.7129ZM97.1188 25.0119C97.1043 25.0196 97.0897 25.0272 97.0753 25.0349V25.0809C97.1841 25.1614 97.2929 25.2419 97.4018 25.3224C97.7065 25.5907 98.0113 25.8591 98.316 26.1274C98.477 26.2661 98.647 26.4682 98.7731 26.6449C98.8831 26.7988 99.0842 26.8926 99.1976 27.0474C99.4121 27.3401 99.6527 27.5957 99.8724 27.8869C99.9694 28.0154 100.113 28.1157 100.21 28.2434C101.254 29.6239 102.164 31.2339 102.659 33.1769C102.731 33.4596 102.829 33.7877 102.898 34.0854C102.96 34.3532 102.975 34.6426 103.04 34.8904C103.047 35.0782 103.054 35.2661 103.061 35.4539C103.198 36.3758 103.112 37.6353 102.953 38.4554C102.802 39.2284 102.619 40.0113 102.354 40.6979C101.813 42.0972 101.114 43.3758 100.297 44.4929C99.9989 44.9001 99.6547 45.2663 99.3609 45.6774C99.2121 45.8307 99.0633 45.984 98.9146 46.1374C98.9182 46.1566 98.9219 46.1757 98.9255 46.1949H98.9799C99.3635 45.7097 99.8801 45.3665 100.242 44.8494C100.322 44.7727 100.402 44.6961 100.482 44.6194C100.664 44.3571 100.899 44.1235 101.07 43.8604C101.64 42.9789 102.197 42.0612 102.626 41.0314C103.01 40.1106 103.193 39.1281 103.421 38.0184C103.428 37.8919 103.435 37.7654 103.442 37.6389C103.609 36.6823 103.538 35.1668 103.355 34.2924C102.833 31.7963 101.991 30.1984 100.754 28.4849C100.393 27.9846 100.011 27.5292 99.5677 27.1164L99.4044 26.8749C98.8978 26.4566 98.4456 25.9349 97.9133 25.5524C97.6722 25.3792 97.3667 25.2361 97.1732 25.0119H97.1188ZM23 40.7324V40.6059C23.0439 40.6013 23.0426 40.6021 23.0653 40.5829C23.3092 40.3621 23.4583 39.9829 23.653 39.7089C23.9724 39.2595 24.307 38.8075 24.5999 38.3289C24.814 38.0338 25.028 37.7386 25.2421 37.4434C26.0926 36.1326 27.0098 34.8851 27.876 33.6024C28.3469 32.9049 28.806 32.2157 29.28 31.5324C29.4292 31.3172 29.6609 30.8268 29.8677 30.7044L32.3274 30.6929C32.5441 30.6928 32.9772 30.6126 33.1111 30.7274H33.1328C33.0638 31.1188 32.8442 31.5297 32.7192 31.8774C32.5335 32.3943 32.4004 32.8956 32.2404 33.4069C32.1818 33.5939 31.9048 34.1863 31.9683 34.3614C32.194 34.4045 33.7406 34.4147 33.8947 34.3269C34.1501 33.4401 34.4811 32.5914 34.7545 31.6934C34.8493 31.382 35.01 31.0836 35.081 30.7389C35.3242 30.6214 36.0817 30.7044 36.4633 30.7044H38.9448C39.2992 30.7044 39.8097 30.6326 40.0985 30.7044C40.1021 30.7159 40.1058 30.7274 40.1094 30.7389C40.1579 30.8784 40.0361 31.1596 40.0005 31.2679C39.9969 31.3561 39.9933 31.4442 39.9896 31.5324C39.8931 31.9251 39.8498 32.3953 39.7393 32.7859C39.5216 33.5556 39.4458 34.4374 39.2931 35.2469C39.1281 36.1212 38.8991 36.999 38.7815 37.9149L38.7924 37.9264H38.8251C38.9576 37.8383 39.0045 37.7187 39.1081 37.6044C39.5588 37.1066 39.9888 36.5901 40.4359 36.0864C41.5243 34.8603 42.6494 33.6577 43.7119 32.4064C43.985 32.0848 44.271 31.7752 44.5282 31.4404C44.5639 31.3939 44.6341 31.3802 44.6697 31.3369C44.8078 31.1688 45.013 30.8034 45.1921 30.7044H50.2857C50.5204 30.7044 51.1317 30.6421 51.2544 30.7159C51.2689 34.0467 51.2834 37.3779 51.2979 40.7094C51.062 40.825 50.304 40.7439 49.9592 40.7439H46.8029C46.4564 40.7439 45.5454 40.8192 45.3771 40.6979L45.4098 39.1109C45.3878 38.9468 45.4434 38.8195 45.3771 38.7084H43.2657C43.0021 38.7084 42.5676 38.6367 42.3514 38.7314C42.1968 38.7991 42.1178 39.0411 42.0358 39.1914C41.7496 39.7165 41.3681 40.199 41.0563 40.7209C40.9228 40.7618 40.7486 40.7163 40.5883 40.7324C39.8591 40.7362 39.1299 40.74 38.4006 40.7439H34.1668C33.401 40.7439 32.5326 40.7076 31.8377 40.7669C31.8123 40.7401 31.7869 40.7133 31.7615 40.6864C32.1108 39.7554 32.4299 38.7506 32.7519 37.8114C32.9206 37.3194 33.0079 36.7959 33.2199 36.3394C33.2126 36.3317 33.2054 36.3241 33.1981 36.3164H31.8268C31.6243 36.3165 31.3703 36.2714 31.2391 36.3624C31.205 36.6178 31.0599 36.8293 30.9996 37.0409V37.2019C30.9706 37.2441 30.9416 37.2863 30.9125 37.3284C30.8423 37.5309 30.7713 37.7378 30.7166 37.9149C30.5463 38.4668 30.4203 38.9837 30.216 39.5249C30.0972 39.8395 29.8475 40.3218 29.8459 40.7094C29.8387 40.7132 29.8314 40.7171 29.8242 40.7209C29.617 40.7694 29.3164 40.7439 29.0732 40.7439H27.6147C26.0766 40.7401 24.5384 40.7363 23 40.7324ZM45.486 33.7634C45.1369 34.3574 44.7027 34.9025 44.3541 35.4884C44.1066 35.9045 43.8769 36.3726 43.5595 36.7189C43.5631 36.7457 43.5668 36.7726 43.5704 36.7994C43.5777 36.8109 43.5849 36.8224 43.5922 36.8339H44.9853C45.1523 36.8339 45.4006 36.8817 45.4642 36.7764C45.5275 36.6048 45.4615 36.3212 45.5077 36.0749C45.5945 35.6125 45.5404 35.0218 45.5404 34.5109C45.5404 34.2652 45.6075 33.9998 45.5404 33.7634H45.486Z" fill="#009241"/>
<path fill-rule="evenodd" clip-rule="evenodd" d="M87.8239 24.0001C89.9224 23.9925 91.9646 23.9646 93.625 24.4026C94.2087 24.5565 94.7399 24.6293 95.2467 24.8511L95.5405 24.9201C95.6811 25.012 95.9935 25.5831 96.1065 25.7596C96.1509 25.829 96.2448 25.8871 96.2915 25.9551C96.3826 26.0878 96.4144 26.2434 96.4983 26.3806C97.0426 27.2703 97.4731 29.0047 97.1514 30.5091C96.51 33.5083 95.1704 35.6623 94.3869 38.4901C94.2179 39.0997 93.9973 40.3619 94.1148 41.1236V41.4571C94.1583 41.6262 94.1481 41.8265 94.191 42.0436C94.2329 42.2558 94.4105 42.551 94.3542 42.7911C94.1227 42.8274 93.9025 43.02 93.7121 43.1131C93.3563 43.2868 92.9718 43.4526 92.6128 43.5961C91.4954 44.043 90.2756 44.3869 89.0211 44.6656C88.0729 44.8763 87.0709 44.9162 86.0716 45.0911L84.9506 45.1256C84.3583 45.2268 83.4323 45.2316 82.8174 45.1256C82.6252 45.1218 82.4329 45.1179 82.2405 45.1141C81.8848 45.0534 81.4868 45.046 81.1739 44.9761C80.9345 44.9493 80.695 44.9224 80.4556 44.8956C79.7014 44.7111 78.9542 44.5556 78.2244 44.3091C77.0925 43.9266 76.0159 43.3491 75.1116 42.7106C74.874 42.5428 74.614 42.4033 74.4042 42.2046C74.172 41.9847 73.94 41.7141 73.6967 41.5146C73.4667 41.3257 73.2034 41.0717 73.0328 40.8246C72.808 40.4835 72.583 40.1423 72.358 39.8011C72.2565 39.5903 72.1549 39.3794 72.0533 39.1686H72.0097C71.8679 39.3566 71.6602 39.5414 71.4764 39.6861C71.275 39.8447 71.1143 40.0904 70.9214 40.2611C70.6628 40.4898 70.4023 40.692 70.1268 40.9051C69.5126 41.3801 68.9077 41.9342 68.2439 42.3541C67.6281 42.7437 66.9517 43.0325 66.3175 43.4006C66.1071 43.4734 65.8967 43.5462 65.6863 43.6191C64.6114 44.0838 63.3745 44.3317 62.0946 44.6081C61.4321 44.7511 60.7501 44.6911 60.0702 44.8151H59.5151C59.3483 44.8189 59.1814 44.8227 59.0145 44.8266C58.425 44.8863 57.7278 44.8611 57.088 44.8611H52.4515C49.8469 44.8573 47.2421 44.8534 44.637 44.8496C44.6334 44.8419 44.6297 44.8343 44.6261 44.8266C44.6437 44.4876 44.8533 44.1348 44.9526 43.8491C45.0094 43.6854 45.004 43.4338 45.1376 43.3546H45.5838C45.9803 43.3546 46.3379 43.3606 46.694 43.2856C47.3911 43.1387 47.7705 42.7537 48.0871 42.2046C48.1829 42.0385 48.1949 41.8244 48.2939 41.6756C49.1682 41.6794 50.0425 41.6832 50.9169 41.6871C51.3737 41.6871 51.8526 41.7522 52.2556 41.6756C52.2701 41.6564 52.2847 41.6373 52.2992 41.6181C52.2847 37.7238 52.2702 33.8292 52.2556 29.9341C52.2564 29.4267 52.548 29.0162 52.6692 28.6116C52.7709 28.2725 52.8317 27.9877 52.9522 27.6686C53.0359 27.4471 53.2292 26.9057 53.0719 26.6106C52.773 26.0497 52.1961 26.2029 51.5046 26.0931C51.3184 26.0635 51.0509 26.1465 50.906 26.0816C50.8886 25.9735 51.2867 24.7739 51.3632 24.6096L59.2213 24.5981C62.6293 24.5981 66.47 24.3843 69.2997 25.0351L69.7459 25.0811C70.2668 25.2209 70.8708 25.4039 71.3349 25.6101L71.6723 25.7021L71.7376 25.7826C71.9813 25.9358 72.254 25.9864 72.4886 26.1506C73.4505 26.825 74.2424 27.7368 74.796 28.8071C74.8504 28.8195 74.8958 28.8174 74.9375 28.7956C75.018 28.6125 75.2902 28.4576 75.4381 28.3356C75.8147 28.0251 76.1944 27.7403 76.6027 27.4501C78.0469 26.4238 79.7695 25.6942 81.6202 25.0926C82.2461 24.8891 82.9235 24.7846 83.5466 24.5981L83.8078 24.5866C84.7134 24.3531 85.7122 24.302 86.692 24.1381C86.9219 24.0996 87.7445 24.1258 87.8239 24.0001ZM88.0525 25.9666L87.5301 26.0011C87.3246 26.0606 87.0732 26.077 86.8335 26.1391C86.5863 26.2031 86.2791 26.3299 86.0499 26.4036L85.8431 26.4151C85.7034 26.4642 85.5056 26.6152 85.3642 26.6796C84.7075 26.9786 84.1173 27.2677 83.5792 27.6916C83.4413 27.8181 83.3035 27.9446 83.1657 28.0711C81.9279 29.0669 80.9608 30.3506 80.1291 31.7741C79.8675 32.2217 79.7247 32.7083 79.4978 33.1886C79.3527 33.4956 79.1499 33.9757 79.0516 34.3041C78.8822 34.8699 78.7888 35.478 78.638 36.0866C78.6271 36.2629 78.6162 36.4392 78.6053 36.6156C78.4986 37.0963 78.4562 38.0416 78.5945 38.5246C78.6017 38.6933 78.609 38.8619 78.6162 39.0306C78.7117 39.4139 78.8171 39.8698 78.9536 40.2381C79.4218 41.501 80.3843 42.4361 81.5548 42.9636C83.2798 43.741 85.8287 43.5569 87.2253 42.6071C87.2979 42.5803 87.3705 42.5534 87.443 42.5266C87.9354 42.2239 88.4766 41.8681 88.8905 41.4686C89.4888 40.891 90.0709 40.3025 90.5993 39.6516C91.697 38.2993 92.4686 36.614 93.1352 34.8101C93.3761 34.1585 93.4576 33.4232 93.6141 32.7056C93.7666 32.0064 93.7497 30.9581 93.6359 30.2676C93.2862 28.1468 92.4297 26.9812 90.7299 26.3001C90.2794 26.1195 89.7279 26.0567 89.2171 25.9666H88.0525ZM62.0946 26.4151L61.2348 26.6566C61.0467 26.7295 60.9323 26.892 60.7885 27.0016L60.6906 27.0361C60.6833 27.0706 60.6761 27.1051 60.6688 27.1396C60.58 27.2956 60.4256 27.4674 60.3641 27.6456C60.296 27.8425 60.284 28.0084 60.2008 28.1976C59.7879 29.1373 59.5675 30.1723 59.2104 31.1646C58.5174 33.09 57.8435 35.0497 57.2404 37.0411C57.0916 37.5324 56.8483 38.057 56.6962 38.5361C56.3717 39.5585 56.0274 40.5425 55.7058 41.5376C55.4775 42.2439 55.5073 42.7545 56.1411 42.9751C56.2427 42.9789 56.3443 42.9827 56.4459 42.9866C56.5335 43.0019 56.6396 43.0386 56.7071 43.0556H57.2295C57.5676 43.111 58.1245 43.1035 58.4267 43.0326C58.6045 43.0288 58.7822 43.0249 58.9601 43.0211C59.5411 42.8994 60.1714 42.9536 60.6906 42.7681C60.8647 42.7374 61.0389 42.7067 61.213 42.6761C61.7452 42.4901 62.3565 42.3492 62.8347 42.0781C63.4658 41.7197 64.0731 41.3162 64.6523 40.8706C64.9131 40.6707 65.1322 40.381 65.3815 40.1691C65.9634 39.6746 66.5368 39.078 66.9705 38.4326C67.316 37.9185 67.5683 37.3817 67.8848 36.8226C68.1675 36.323 68.4774 35.7017 68.6575 35.1206C68.8295 34.5658 69.04 34.01 69.2235 33.4761C69.4052 32.9471 69.4675 32.3336 69.5935 31.7856C69.5971 31.6207 69.6008 31.4559 69.6044 31.2911C69.8385 30.0782 69.1623 28.8638 68.712 28.1976C68.583 28.0067 68.4667 27.7798 68.2984 27.6341C66.9191 26.4407 64.6266 26.4139 62.0946 26.4151ZM88.0525 27.1511C89.6433 27.1312 90.9765 27.3787 91.6441 28.3126C91.7384 28.4445 92.3048 29.2099 92.2101 29.3821C92.2028 29.3782 92.1956 29.3744 92.1883 29.3706C92.1193 29.2226 91.9685 29.094 91.8727 28.9681C91.2999 28.2152 90.578 28.0601 89.5 27.8411C89.1392 27.7678 88.5155 27.7307 88.1396 27.8066C87.6291 27.9096 87.0655 28.036 86.6267 28.1976L86.409 28.2321C86.234 28.3124 86.0456 28.4297 85.8431 28.5081C85.6939 28.5658 85.5221 28.7128 85.386 28.7956C84.8332 29.1316 84.3697 29.4738 83.884 29.8651C83.802 29.9311 83.6981 30.1136 83.6337 30.1641C83.1587 30.5364 82.8531 31.0313 82.4582 31.4866C81.5283 32.5587 80.9579 34.0002 80.4229 35.4886C80.325 35.8949 80.227 36.3012 80.1291 36.7076C80.1146 36.8839 80.1001 37.0602 80.0855 37.2366C79.9763 37.62 79.9561 38.5575 80.0311 38.9846C80.0565 39.1954 80.0819 39.4062 80.1073 39.6171C80.1413 39.741 80.2535 39.9392 80.2161 40.1116C80.2088 40.1078 80.2017 40.1039 80.1944 40.1001C80.1564 39.9842 80.0128 39.7569 79.9767 39.6516C79.8878 39.3926 79.8388 39.1029 79.7917 38.8466C79.5255 37.3984 79.8777 35.8899 80.1726 34.7756C80.8175 32.3394 82.4847 30.0067 84.1996 28.6921C84.4742 28.4815 84.7791 28.3118 85.0594 28.1171C85.5188 27.798 86.3727 27.4694 86.9641 27.3121C87.2089 27.247 87.4039 27.2272 87.6389 27.1856L88.0525 27.1511ZM60.6144 27.5191C60.6217 27.5267 60.6289 27.5344 60.6362 27.5421H60.6035C60.6071 27.5344 60.6108 27.5267 60.6144 27.5191ZM62.0946 27.6111C64.4508 27.5934 66.9429 27.4633 67.8412 28.9911C67.9779 29.2236 68.1905 29.4724 68.2548 29.7731L68.2222 29.7961C68.1858 29.7 68.0863 29.6201 68.0263 29.5431C67.9199 29.4067 67.841 29.2263 67.7106 29.1176C66.9298 28.4664 65.3398 28.2321 63.9557 28.2321C63.3088 28.2321 62.3341 28.1427 61.9422 28.4161C61.6994 28.5854 61.6622 29.1058 61.5395 29.4051C61.203 30.2262 60.9222 31.136 60.6688 32.0041C60.3531 33.0857 59.9208 34.209 59.5478 35.2586C59.1443 36.394 58.833 37.5455 58.4159 38.6396C58.405 38.7124 58.3941 38.7852 58.3832 38.8581C58.1823 39.526 57.9054 40.2205 57.6758 40.8821C57.5573 41.2232 57.4992 41.6076 57.3275 41.8941C57.1824 41.8903 57.0373 41.8864 56.8921 41.8826C56.8812 41.8634 56.8704 41.8443 56.8595 41.8251C56.8322 41.6849 57.1519 40.9691 57.2186 40.8016C57.5052 40.0812 57.6677 39.3395 57.9261 38.6166C58.5152 36.9687 59.0326 35.2479 59.624 33.6141C59.9931 32.5939 60.2391 31.5406 60.647 30.5666C60.7088 30.3519 60.7704 30.1372 60.8321 29.9226C60.9324 29.5554 61.0988 29.1529 61.2348 28.8071C61.3608 28.4865 61.3878 27.9722 61.6266 27.7721L62.0946 27.6111ZM75.166 28.2781H75.1878L75.1552 28.3241C75.1479 28.3202 75.1407 28.3164 75.1334 28.3126V28.3011L75.166 28.2781ZM61.1368 31.1531H61.1586C61.1513 31.1646 61.1441 31.1761 61.1368 31.1876V31.1531ZM80.0093 32.3491C80.0166 32.3606 80.0238 32.3721 80.0311 32.3836C80.0238 32.3721 80.0166 32.3606 80.0093 32.3491ZM92.8522 34.8906C92.8704 34.8944 92.8885 34.8982 92.9067 34.9021V34.9481H92.8849L92.8522 34.9596C92.845 34.9481 92.8378 34.9366 92.8305 34.9251C92.8378 34.9136 92.845 34.9021 92.8522 34.8906ZM71.7159 41.1006H71.7921C72.6264 42.2953 73.7521 43.3784 75.0572 44.0676C75.2676 44.2056 75.478 44.3436 75.6885 44.4816C76.2108 44.731 76.7305 44.973 77.2557 45.2061C77.7017 45.404 78.1939 45.4886 78.638 45.6776C78.8157 45.7159 78.9935 45.7542 79.1713 45.7926C79.6501 45.931 80.2168 46.0373 80.7277 46.1376L81.1739 46.1721C81.5243 46.2626 81.929 46.2443 82.3167 46.3101C82.5089 46.3139 82.7012 46.3177 82.8936 46.3216C83.2131 46.3785 83.7125 46.4012 84.0472 46.3446C84.6313 46.3293 85.2154 46.3139 85.7995 46.2986C86.6338 46.1575 87.4842 46.1698 88.2919 45.9996C88.7975 45.8931 89.3251 45.8332 89.8374 45.7006C90.6075 45.5013 91.4137 45.2432 92.1339 44.9991C92.4097 44.9056 92.6865 44.8091 92.9284 44.7001C93.0119 44.6809 93.0954 44.6617 93.1788 44.6426C93.5687 44.4486 93.9694 44.2699 94.376 44.0906C94.4933 44.0388 94.6704 43.8424 94.8331 43.9066C94.8808 43.9352 95.1322 44.3956 95.1487 44.4701C94.9294 44.64 94.675 44.7228 94.4086 44.8496C93.9123 45.0858 93.3737 45.3398 92.8414 45.5396C92.6786 45.6006 92.5072 45.6756 92.3625 45.7121L92.1339 45.7466C91.5193 46.0355 90.7983 46.1591 90.0769 46.3331C88.439 46.7281 86.6289 47 84.6241 47.0001H82.5888C82.2829 46.8089 81.6208 46.9704 81.2501 46.8391C80.8362 46.6924 80.3583 46.6877 79.9223 46.5976C79.36 46.4404 78.7977 46.2832 78.2353 46.1261C76.8025 45.6809 75.5963 44.9049 74.426 44.1826C74.3897 44.1404 74.3534 44.0982 74.3171 44.0561C73.8537 43.7345 73.4712 43.354 73.0546 42.9866C72.6595 42.6382 72.4001 42.1447 72.0424 41.7561C72.0315 41.7599 72.0206 41.7638 72.0097 41.7676L71.6941 42.0666C71.6433 42.0934 71.5925 42.1202 71.5417 42.1471C71.1361 42.6489 70.5237 42.921 70.0398 43.3431C69.4898 43.8229 68.8537 44.1348 68.2113 44.5276C68.089 44.6023 67.9454 44.7177 67.8086 44.7806C67.5797 44.8859 67.3614 45.0118 67.1447 45.1026L66.9705 45.1371C66.8457 45.208 66.6527 45.3302 66.5134 45.3786C65.7229 45.6532 64.9184 45.8839 64.0972 46.1376C63.9231 46.1644 63.7489 46.1912 63.5748 46.2181C63.0186 46.39 62.344 46.448 61.7463 46.5516C61.3727 46.5823 60.999 46.6129 60.6253 46.6436H60.1464C59.5036 46.7705 58.5887 46.7011 57.8281 46.7011H44.1472C44.1263 46.6851 44.1407 46.6999 44.1254 46.6781C44.0535 46.5244 44.2148 46.2237 44.256 46.0686C44.4686 45.9681 44.9166 46.0341 45.192 46.0341H58.0349L59.6893 45.9996H60.1029L61.4742 45.8616C61.5795 45.8578 61.6847 45.8539 61.7898 45.8501C62.076 45.7744 62.3927 45.7673 62.715 45.7006C63.5567 45.5262 64.4067 45.3559 65.1965 45.0911C66.9671 44.4971 68.5183 43.6245 69.8765 42.5956C70.5131 42.1134 71.1608 41.667 71.7159 41.1006ZM93.7121 43.2281H93.7338C93.7187 43.2502 93.7327 43.235 93.7121 43.2511V43.2281Z" fill="#E21C2B"/>
</g>
<defs>
<clipPath id="clip0">
<rect width="83" height="23" fill="white" transform="translate(23 24)"/>
</clipPath>
</defs>
</svg>
