<svg width="130" height="70" viewBox="0 0 130 70" fill="none" xmlns="http://www.w3.org/2000/svg">
<rect width="130" height="70" fill="#E21C2B"/>
<g clip-path="url(#clip0)">
<path fill-rule="evenodd" clip-rule="evenodd" d="M96.6399 24.7129C96.9635 24.7268 97.2614 24.9476 97.5324 25.0464L97.7718 25.0924C97.7972 25.1231 97.8226 25.1537 97.848 25.1844L98.0548 25.2189C98.1019 25.2572 98.1491 25.2956 98.1963 25.3339C98.3752 25.4215 98.5186 25.4396 98.6861 25.5179C99.1338 25.7271 99.5895 26.0198 100.014 26.2769L100.112 26.3919C101.798 27.4264 103.143 28.818 104.215 30.4974C104.599 31.0983 104.869 31.7938 105.195 32.4524C105.213 32.5367 105.231 32.6211 105.249 32.7054C105.496 33.3442 105.702 34.1355 105.869 34.8789C105.891 35.1166 105.913 35.3542 105.935 35.5919C106.126 36.4958 105.988 37.9005 105.815 38.6739C105.755 38.9397 105.767 39.1588 105.695 39.4099C105.339 40.6593 104.809 41.8072 104.095 42.6874C103.841 43.0005 103.66 43.3481 103.344 43.5959C103.203 43.7531 103.061 43.9103 102.92 44.0674C102.579 44.351 102.238 44.6346 101.897 44.9184C101.763 45.01 101.583 45.0496 101.461 45.1599C101.067 45.5187 100.31 45.86 99.8071 46.1029C99.6983 46.1336 99.5894 46.1643 99.4806 46.1949C99.2566 46.2976 99.0064 46.3651 98.7623 46.4709C98.6832 46.5052 98.6438 46.5601 98.5337 46.5744C97.3403 45.7482 96.2695 44.6369 95.5842 43.2739C94.9481 42.0091 94.9835 40.1465 95.3556 38.6164C95.5199 37.941 95.8247 37.2418 96.0631 36.6384C96.4472 35.6658 96.7778 34.7255 97.1841 33.7979C97.4007 33.3035 97.5197 32.7816 97.6848 32.2454C97.7246 32.1159 97.822 31.9541 97.8589 31.8084C97.9578 31.4175 97.9981 30.9745 98.1201 30.6009C98.131 30.4667 98.1419 30.3326 98.1528 30.1984C98.2028 29.8759 98.2072 29.4856 98.2072 29.0944C98.2073 27.9953 97.8351 26.6676 97.4127 26.0009C97.2073 25.6767 97.0253 25.3359 96.8032 25.0349C96.7373 24.9457 96.5963 24.842 96.6399 24.7129ZM97.1188 25.0119C97.1043 25.0196 97.0897 25.0272 97.0753 25.0349V25.0809C97.1841 25.1614 97.2929 25.2419 97.4018 25.3224C97.7065 25.5907 98.0113 25.8591 98.316 26.1274C98.477 26.2661 98.647 26.4682 98.7731 26.6449C98.8831 26.7988 99.0842 26.8926 99.1976 27.0474C99.4121 27.3401 99.6527 27.5957 99.8724 27.8869C99.9694 28.0154 100.113 28.1157 100.21 28.2434C101.254 29.6239 102.164 31.2339 102.659 33.1769C102.731 33.4596 102.829 33.7877 102.898 34.0854C102.96 34.3532 102.975 34.6426 103.04 34.8904C103.047 35.0782 103.054 35.2661 103.061 35.4539C103.198 36.3758 103.112 37.6353 102.953 38.4554C102.802 39.2284 102.619 40.0113 102.354 40.6979C101.813 42.0972 101.114 43.3758 100.297 44.4929C99.9989 44.9001 99.6547 45.2663 99.3609 45.6774C99.2121 45.8307 99.0633 45.984 98.9146 46.1374C98.9182 46.1566 98.9219 46.1757 98.9255 46.1949H98.9799C99.3635 45.7097 99.8801 45.3665 100.242 44.8494C100.322 44.7727 100.402 44.6961 100.482 44.6194C100.664 44.3571 100.899 44.1235 101.07 43.8604C101.64 42.9789 102.197 42.0612 102.626 41.0314C103.01 40.1106 103.193 39.1281 103.421 38.0184C103.428 37.8919 103.435 37.7654 103.442 37.6389C103.609 36.6823 103.538 35.1668 103.355 34.2924C102.833 31.7963 101.991 30.1984 100.754 28.4849C100.393 27.9846 100.011 27.5292 99.5677 27.1164L99.4044 26.8749C98.8978 26.4566 98.4456 25.9349 97.9133 25.5524C97.6722 25.3792 97.3667 25.2361 97.1732 25.0119H97.1188ZM23 40.7324V40.6059C23.0439 40.6013 23.0426 40.6021 23.0653 40.5829C23.3092 40.3621 23.4583 39.9829 23.653 39.7089C23.9724 39.2595 24.307 38.8075 24.5999 38.3289C24.814 38.0338 25.028 37.7386 25.2421 37.4434C26.0926 36.1326 27.0098 34.8851 27.876 33.6024C28.3469 32.9049 28.806 32.2157 29.28 31.5324C29.4292 31.3172 29.6609 30.8268 29.8677 30.7044L32.3274 30.6929C32.5441 30.6928 32.9772 30.6126 33.1111 30.7274H33.1328C33.0638 31.1188 32.8442 31.5297 32.7192 31.8774C32.5335 32.3943 32.4004 32.8956 32.2404 33.4069C32.1818 33.5939 31.9048 34.1863 31.9683 34.3614C32.194 34.4045 33.7406 34.4147 33.8947 34.3269C34.1501 33.4401 34.4811 32.5914 34.7545 31.6934C34.8493 31.382 35.01 31.0836 35.081 30.7389C35.3242 30.6214 36.0817 30.7044 36.4633 30.7044H38.9448C39.2992 30.7044 39.8097 30.6326 40.0985 30.7044C40.1021 30.7159 40.1058 30.7274 40.1094 30.7389C40.1579 30.8784 40.0361 31.1596 40.0005 31.2679C39.9969 31.3561 39.9933 31.4442 39.9896 31.5324C39.8931 31.9251 39.8498 32.3953 39.7393 32.7859C39.5216 33.5556 39.4458 34.4374 39.2931 35.2469C39.1281 36.1212 38.8991 36.999 38.7815 37.9149L38.7924 37.9264H38.8251C38.9576 37.8383 39.0045 37.7187 39.1081 37.6044C39.5588 37.1066 39.9888 36.5901 40.4359 36.0864C41.5243 34.8603 42.6494 33.6577 43.7119 32.4064C43.985 32.0848 44.271 31.7752 44.5282 31.4404C44.5639 31.3939 44.6341 31.3802 44.6697 31.3369C44.8078 31.1688 45.013 30.8034 45.1921 30.7044H50.2857C50.5204 30.7044 51.1317 30.6421 51.2544 30.7159C51.2689 34.0467 51.2834 37.3779 51.2979 40.7094C51.062 40.825 50.304 40.7439 49.9592 40.7439H46.8029C46.4564 40.7439 45.5454 40.8192 45.3771 40.6979L45.4098 39.1109C45.3878 38.9468 45.4434 38.8195 45.3771 38.7084H43.2657C43.0021 38.7084 42.5676 38.6367 42.3514 38.7314C42.1968 38.7991 42.1178 39.0411 42.0358 39.1914C41.7496 39.7165 41.3681 40.199 41.0563 40.7209C40.9228 40.7618 40.7486 40.7163 40.5883 40.7324C39.8591 40.7362 39.1299 40.74 38.4006 40.7439H34.1668C33.401 40.7439 32.5326 40.7076 31.8377 40.7669C31.8123 40.7401 31.7869 40.7133 31.7615 40.6864C32.1108 39.7554 32.4299 38.7506 32.7519 37.8114C32.9206 37.3194 33.0079 36.7959 33.2199 36.3394C33.2126 36.3317 33.2054 36.3241 33.1981 36.3164H31.8268C31.6243 36.3165 31.3703 36.2714 31.2391 36.3624C31.205 36.6178 31.0599 36.8293 30.9996 37.0409V37.2019C30.9706 37.2441 30.9416 37.2863 30.9125 37.3284C30.8423 37.5309 30.7713 37.7378 30.7166 37.9149C30.5463 38.4668 30.4203 38.9837 30.216 39.5249C30.0972 39.8395 29.8475 40.3218 29.8459 40.7094C29.8387 40.7132 29.8314 40.7171 29.8242 40.7209C29.617 40.7694 29.3164 40.7439 29.0732 40.7439H27.6147C26.0766 40.7401 24.5384 40.7363 23 40.7324ZM45.486 33.7634C45.1369 34.3574 44.7027 34.9025 44.3541 35.4884C44.1066 35.9045 43.8769 36.3726 43.5595 36.7189C43.5631 36.7457 43.5668 36.7726 43.5704 36.7994C43.5777 36.8109 43.5849 36.8224 43.5922 36.8339H44.9853C45.1523 36.8339 45.4006 36.8817 45.4642 36.7764C45.5275 36.6048 45.4615 36.3212 45.5077 36.0749C45.5945 35.6125 45.5404 35.0218 45.5404 34.5109C45.5404 34.2652 45.6075 33.9998 45.5404 33.7634H45.486Z" fill="white"/>
<path fill-rule="evenodd" clip-rule="evenodd" d="M87.824 24.0001C89.9226 23.9925 91.9647 23.9646 93.6251 24.4026C94.2088 24.5565 94.7401 24.6293 95.2468 24.8511L95.5407 24.9201C95.6812 25.012 95.9937 25.5831 96.1066 25.7596C96.151 25.829 96.245 25.8871 96.2917 25.9551C96.3828 26.0878 96.4145 26.2434 96.4984 26.3806C97.0427 27.2703 97.4732 29.0047 97.1515 30.5091C96.5101 33.5083 95.1705 35.6623 94.387 38.4901C94.2181 39.0997 93.9975 40.3619 94.1149 41.1236V41.4571C94.1584 41.6262 94.1482 41.8265 94.1911 42.0436C94.233 42.2558 94.4106 42.551 94.3543 42.7911C94.1228 42.8274 93.9027 43.02 93.7122 43.1131C93.3564 43.2868 92.9719 43.4526 92.6129 43.5961C91.4955 44.043 90.2757 44.3869 89.0213 44.6656C88.0731 44.8763 87.071 44.9162 86.0718 45.0911L84.9507 45.1256C84.3584 45.2268 83.4324 45.2316 82.8175 45.1256C82.6253 45.1218 82.433 45.1179 82.2407 45.1141C81.885 45.0534 81.4869 45.046 81.174 44.9761C80.9346 44.9493 80.6951 44.9224 80.4557 44.8956C79.7016 44.7111 78.9543 44.5556 78.2245 44.3091C77.0926 43.9266 76.016 43.3491 75.1118 42.7106C74.8742 42.5428 74.6141 42.4033 74.4043 42.2046C74.1722 41.9847 73.9401 41.7141 73.6969 41.5146C73.4668 41.3257 73.2035 41.0717 73.0329 40.8246C72.8081 40.4835 72.5832 40.1423 72.3581 39.8011C72.2566 39.5903 72.155 39.3794 72.0534 39.1686H72.0099C71.8681 39.3566 71.6603 39.5414 71.4766 39.6861C71.2751 39.8447 71.1145 40.0904 70.9215 40.2611C70.6629 40.4898 70.4024 40.692 70.127 40.9051C69.5127 41.3801 68.9079 41.9342 68.2441 42.3541C67.6283 42.7437 66.9518 43.0325 66.3176 43.4006C66.1073 43.4734 65.8968 43.5462 65.6864 43.6191C64.6115 44.0838 63.3747 44.3317 62.0947 44.6081C61.4322 44.7511 60.7502 44.6911 60.0703 44.8151H59.5153C59.3484 44.8189 59.1815 44.8227 59.0146 44.8266C58.4251 44.8863 57.7279 44.8611 57.0882 44.8611H52.4517C49.8471 44.8573 47.2422 44.8534 44.6371 44.8496C44.6335 44.8419 44.6298 44.8343 44.6262 44.8266C44.6438 44.4876 44.8534 44.1348 44.9527 43.8491C45.0095 43.6854 45.0041 43.4338 45.1377 43.3546H45.584C45.9805 43.3546 46.338 43.3606 46.6941 43.2856C47.3912 43.1387 47.7706 42.7537 48.0872 42.2046C48.183 42.0385 48.195 41.8244 48.294 41.6756C49.1683 41.6794 50.0427 41.6832 50.917 41.6871C51.3738 41.6871 51.8527 41.7522 52.2557 41.6756C52.2702 41.6564 52.2848 41.6373 52.2993 41.6181C52.2848 37.7238 52.2703 33.8292 52.2557 29.9341C52.2565 29.4267 52.5481 29.0162 52.6693 28.6116C52.771 28.2725 52.8318 27.9877 52.9523 27.6686C53.036 27.4471 53.2293 26.9057 53.072 26.6106C52.7732 26.0497 52.1962 26.2029 51.5048 26.0931C51.3185 26.0635 51.051 26.1465 50.9062 26.0816C50.8887 25.9735 51.2869 24.7739 51.3633 24.6096L59.2214 24.5981C62.6294 24.5981 66.4701 24.3843 69.2998 25.0351L69.746 25.0811C70.2669 25.2209 70.8709 25.4039 71.3351 25.6101L71.6725 25.7021L71.7378 25.7826C71.9815 25.9358 72.2541 25.9864 72.4888 26.1506C73.4506 26.825 74.2425 27.7368 74.7961 28.8071C74.8505 28.8195 74.8959 28.8174 74.9376 28.7956C75.0182 28.6125 75.2904 28.4576 75.4383 28.3356C75.8148 28.0251 76.1945 27.7403 76.6028 27.4501C78.047 26.4238 79.7696 25.6942 81.6203 25.0926C82.2462 24.8891 82.9236 24.7846 83.5467 24.5981L83.8079 24.5866C84.7136 24.3531 85.7124 24.302 86.6921 24.1381C86.922 24.0996 87.7446 24.1258 87.824 24.0001ZM88.0526 25.9666L87.5302 26.0011C87.3247 26.0606 87.0733 26.077 86.8336 26.1391C86.5864 26.2031 86.2792 26.3299 86.05 26.4036L85.8432 26.4151C85.7036 26.4642 85.5057 26.6152 85.3643 26.6796C84.7076 26.9786 84.1175 27.2677 83.5794 27.6916C83.4415 27.8181 83.3036 27.9446 83.1658 28.0711C81.9281 29.0669 80.9609 30.3506 80.1292 31.7741C79.8677 32.2217 79.7249 32.7083 79.4979 33.1886C79.3528 33.4956 79.15 33.9757 79.0517 34.3041C78.8823 34.8699 78.789 35.478 78.6381 36.0866C78.6272 36.2629 78.6163 36.4392 78.6055 36.6156C78.4987 37.0963 78.4563 38.0416 78.5946 38.5246C78.6019 38.6933 78.6091 38.8619 78.6163 39.0306C78.7118 39.4139 78.8173 39.8698 78.9537 40.2381C79.422 41.501 80.3844 42.4361 81.555 42.9636C83.2799 43.741 85.8288 43.5569 87.2254 42.6071C87.298 42.5803 87.3706 42.5534 87.4431 42.5266C87.9355 42.2239 88.4767 41.8681 88.8907 41.4686C89.4889 40.891 90.071 40.3025 90.5994 39.6516C91.6972 38.2993 92.4687 36.614 93.1353 34.8101C93.3762 34.1585 93.4577 33.4232 93.6142 32.7056C93.7667 32.0064 93.7498 30.9581 93.636 30.2676C93.2863 28.1468 92.4299 26.9812 90.73 26.3001C90.2795 26.1195 89.7281 26.0567 89.2172 25.9666H88.0526ZM62.0947 26.4151L61.2349 26.6566C61.0468 26.7295 60.9324 26.892 60.7887 27.0016L60.6907 27.0361C60.6834 27.0706 60.6762 27.1051 60.6689 27.1396C60.5801 27.2956 60.4257 27.4674 60.3642 27.6456C60.2962 27.8425 60.2841 28.0084 60.2009 28.1976C59.788 29.1373 59.5676 30.1723 59.2105 31.1646C58.5175 33.09 57.8436 35.0497 57.2405 37.0411C57.0918 37.5324 56.8484 38.057 56.6963 38.5361C56.3718 39.5585 56.0275 40.5425 55.7059 41.5376C55.4776 42.2439 55.5074 42.7545 56.1413 42.9751C56.2428 42.9789 56.3444 42.9827 56.446 42.9866C56.5336 43.0019 56.6397 43.0386 56.7072 43.0556H57.2297C57.5677 43.111 58.1246 43.1035 58.4269 43.0326C58.6046 43.0288 58.7824 43.0249 58.9602 43.0211C59.5413 42.8994 60.1715 42.9536 60.6907 42.7681C60.8648 42.7374 61.039 42.7067 61.2131 42.6761C61.7453 42.4901 62.3566 42.3492 62.8348 42.0781C63.4659 41.7197 64.0732 41.3162 64.6524 40.8706C64.9132 40.6707 65.1323 40.381 65.3816 40.1691C65.9635 39.6746 66.5369 39.078 66.9707 38.4326C67.3161 37.9185 67.5684 37.3817 67.8849 36.8226C68.1677 36.323 68.4775 35.7017 68.6577 35.1206C68.8296 34.5658 69.0401 34.01 69.2236 33.4761C69.4054 32.9471 69.4676 32.3336 69.5937 31.7856C69.5973 31.6207 69.6009 31.4559 69.6045 31.2911C69.8387 30.0782 69.1624 28.8638 68.7121 28.1976C68.5831 28.0067 68.4669 27.7798 68.2985 27.6341C66.9192 26.4407 64.6267 26.4139 62.0947 26.4151ZM88.0526 27.1511C89.6434 27.1312 90.9767 27.3787 91.6443 28.3126C91.7385 28.4445 92.3049 29.2099 92.2102 29.3821C92.2029 29.3782 92.1957 29.3744 92.1885 29.3706C92.1195 29.2226 91.9686 29.094 91.8728 28.9681C91.3 28.2152 90.5781 28.0601 89.5002 27.8411C89.1394 27.7678 88.5156 27.7307 88.1397 27.8066C87.6292 27.9096 87.0657 28.036 86.6268 28.1976L86.4092 28.2321C86.2341 28.3124 86.0457 28.4297 85.8432 28.5081C85.694 28.5658 85.5222 28.7128 85.3861 28.7956C84.8333 29.1316 84.3699 29.4738 83.8841 29.8651C83.8022 29.9311 83.6982 30.1136 83.6338 30.1641C83.1588 30.5364 82.8532 31.0313 82.4583 31.4866C81.5284 32.5587 80.958 34.0002 80.4231 35.4886C80.3251 35.8949 80.2271 36.3012 80.1292 36.7076C80.1147 36.8839 80.1002 37.0602 80.0857 37.2366C79.9764 37.62 79.9562 38.5575 80.0312 38.9846C80.0566 39.1954 80.082 39.4062 80.1074 39.6171C80.1414 39.741 80.2536 39.9392 80.2163 40.1116C80.209 40.1078 80.2018 40.1039 80.1945 40.1001C80.1565 39.9842 80.013 39.7569 79.9768 39.6516C79.8879 39.3926 79.8389 39.1029 79.7918 38.8466C79.5256 37.3984 79.8778 35.8899 80.1727 34.7756C80.8176 32.3394 82.4848 30.0067 84.1997 28.6921C84.4743 28.4815 84.7792 28.3118 85.0596 28.1171C85.519 27.798 86.3728 27.4694 86.9642 27.3121C87.209 27.247 87.404 27.2272 87.639 27.1856L88.0526 27.1511ZM60.6145 27.5191C60.6218 27.5267 60.629 27.5344 60.6363 27.5421H60.6036C60.6072 27.5344 60.6109 27.5267 60.6145 27.5191ZM62.0947 27.6111C64.451 27.5934 66.943 27.4633 67.8414 28.9911C67.9781 29.2236 68.1906 29.4724 68.255 29.7731L68.2223 29.7961C68.1859 29.7 68.0865 29.6201 68.0264 29.5431C67.9201 29.4067 67.8411 29.2263 67.7108 29.1176C66.93 28.4664 65.3399 28.2321 63.9558 28.2321C63.3089 28.2321 62.3343 28.1427 61.9423 28.4161C61.6995 28.5854 61.6623 29.1058 61.5396 29.4051C61.2031 30.2262 60.9223 31.136 60.6689 32.0041C60.3532 33.0857 59.9209 34.209 59.5479 35.2586C59.1444 36.394 58.8332 37.5455 58.416 38.6396C58.4051 38.7124 58.3942 38.7852 58.3833 38.8581C58.1824 39.526 57.9055 40.2205 57.6759 40.8821C57.5575 41.2232 57.4994 41.6076 57.3276 41.8941C57.1825 41.8903 57.0374 41.8864 56.8923 41.8826C56.8814 41.8634 56.8705 41.8443 56.8596 41.8251C56.8323 41.6849 57.152 40.9691 57.2188 40.8016C57.5053 40.0812 57.6678 39.3395 57.9262 38.6166C58.5154 36.9687 59.0328 35.2479 59.6241 33.6141C59.9933 32.5939 60.2392 31.5406 60.6472 30.5666C60.7089 30.3519 60.7706 30.1372 60.8322 29.9226C60.9325 29.5554 61.099 29.1529 61.2349 28.8071C61.3609 28.4865 61.3879 27.9722 61.6267 27.7721L62.0947 27.6111ZM75.1662 28.2781H75.1879L75.1553 28.3241C75.148 28.3202 75.1408 28.3164 75.1335 28.3126V28.3011L75.1662 28.2781ZM61.1369 31.1531H61.1587C61.1514 31.1646 61.1442 31.1761 61.1369 31.1876V31.1531ZM80.0095 32.3491C80.0168 32.3606 80.0239 32.3721 80.0312 32.3836C80.0239 32.3721 80.0168 32.3606 80.0095 32.3491ZM92.8524 34.8906C92.8705 34.8944 92.8886 34.8982 92.9068 34.9021V34.9481H92.885L92.8524 34.9596C92.8451 34.9481 92.8379 34.9366 92.8306 34.9251C92.8379 34.9136 92.8451 34.9021 92.8524 34.8906ZM71.716 41.1006H71.7922C72.6265 42.2953 73.7523 43.3784 75.0573 44.0676C75.2677 44.2056 75.4781 44.3436 75.6886 44.4816C76.2109 44.731 76.7306 44.973 77.2559 45.2061C77.7018 45.404 78.194 45.4886 78.6381 45.6776C78.8158 45.7159 78.9936 45.7542 79.1714 45.7926C79.6502 45.931 80.2169 46.0373 80.7278 46.1376L81.174 46.1721C81.5244 46.2626 81.9292 46.2443 82.3168 46.3101C82.509 46.3139 82.7013 46.3177 82.8937 46.3216C83.2132 46.3785 83.7126 46.4012 84.0474 46.3446C84.6314 46.3293 85.2155 46.3139 85.7997 46.2986C86.6339 46.1575 87.4844 46.1698 88.292 45.9996C88.7976 45.8931 89.3253 45.8332 89.8376 45.7006C90.6076 45.5013 91.4139 45.2432 92.134 44.9991C92.4098 44.9056 92.6866 44.8091 92.9286 44.7001C93.012 44.6809 93.0955 44.6617 93.1789 44.6426C93.5689 44.4486 93.9695 44.2699 94.3761 44.0906C94.4934 44.0388 94.6705 43.8424 94.8332 43.9066C94.8809 43.9352 95.1323 44.3956 95.1489 44.4701C94.9295 44.64 94.6751 44.7228 94.4088 44.8496C93.9125 45.0858 93.3738 45.3398 92.8415 45.5396C92.6788 45.6006 92.5074 45.6756 92.3626 45.7121L92.134 45.7466C91.5194 46.0355 90.7984 46.1591 90.077 46.3331C88.4391 46.7281 86.629 47 84.6242 47.0001H82.5889C82.283 46.8089 81.6209 46.9704 81.2502 46.8391C80.8363 46.6924 80.3584 46.6877 79.9224 46.5976C79.3601 46.4404 78.7978 46.2832 78.2354 46.1261C76.8027 45.6809 75.5964 44.9049 74.4261 44.1826C74.3898 44.1404 74.3536 44.0982 74.3172 44.0561C73.8538 43.7345 73.4713 43.354 73.0547 42.9866C72.6596 42.6382 72.4003 42.1447 72.0425 41.7561C72.0316 41.7599 72.0208 41.7638 72.0099 41.7676L71.6942 42.0666C71.6434 42.0934 71.5926 42.1202 71.5419 42.1471C71.1362 42.6489 70.5238 42.921 70.0399 43.3431C69.4899 43.8229 68.8538 44.1348 68.2114 44.5276C68.0891 44.6023 67.9455 44.7177 67.8087 44.7806C67.5798 44.8859 67.3615 45.0118 67.1448 45.1026L66.9707 45.1371C66.8458 45.208 66.6529 45.3302 66.5135 45.3786C65.7231 45.6532 64.9185 45.8839 64.0973 46.1376C63.9232 46.1644 63.7491 46.1912 63.5749 46.2181C63.0188 46.39 62.3442 46.448 61.7464 46.5516C61.3728 46.5823 60.9991 46.6129 60.6254 46.6436H60.1465C59.5037 46.7705 58.5888 46.7011 57.8283 46.7011H44.1473C44.1264 46.6851 44.1408 46.6999 44.1255 46.6781C44.0536 46.5244 44.2149 46.2237 44.2561 46.0686C44.4687 45.9681 44.9167 46.0341 45.1922 46.0341H58.0351L59.6894 45.9996H60.103L61.4743 45.8616C61.5796 45.8578 61.6848 45.8539 61.79 45.8501C62.0761 45.7744 62.3928 45.7673 62.7151 45.7006C63.5568 45.5262 64.4069 45.3559 65.1966 45.0911C66.9672 44.4971 68.5184 43.6245 69.8766 42.5956C70.5132 42.1134 71.1609 41.667 71.716 41.1006ZM93.7122 43.2281H93.734C93.7188 43.2502 93.7329 43.235 93.7122 43.2511V43.2281Z" fill="white"/>
</g>
<defs>
<clipPath id="clip0">
<rect width="83" height="23" fill="white" transform="translate(23 24)"/>
</clipPath>
</defs>
</svg>
