<svg width="968" height="202" viewBox="0 0 968 202" fill="none" xmlns="http://www.w3.org/2000/svg">
<path d="M446.925 202C438.474 202 434.691 194.757 434.691 187.58V14.4205C434.69 7.24305 438.473 0 446.924 0C449.66 0 452.497 0.837592 455.358 2.48962L605.319 89.0666C610.398 91.9994 613.309 96.3482 613.309 100.999C613.309 105.65 610.398 109.999 605.32 112.932L455.357 199.512C452.497 201.162 449.66 202 446.925 202ZM446.924 9.00637C444.116 9.00637 443.697 12.3979 443.697 14.4205V187.58C443.697 189.601 444.116 192.994 446.925 192.994C447.704 192.994 449.019 192.771 450.854 191.712L600.816 105.132C602.999 103.872 604.303 102.327 604.303 100.999C604.303 99.6722 602.999 98.127 600.815 96.8661L450.854 10.2891C449.019 9.22896 447.704 9.00637 446.924 9.00637Z" fill="#E21C2B"/>
<path d="M108.562 136.752C98.4822 146.832 86.1462 151.872 71.5542 151.872C56.9622 151.872 44.5782 146.832 34.4022 136.752C24.3222 126.576 19.2822 114.192 19.2822 99.6C19.2822 85.008 24.3222 72.672 34.4022 62.592C44.5782 52.416 56.9622 47.328 71.5542 47.328C86.1462 47.328 98.4822 52.416 108.562 62.592C118.738 72.672 123.826 85.008 123.826 99.6C123.826 114.192 118.738 126.576 108.562 136.752ZM46.0662 125.52C52.9782 132.336 61.4742 135.744 71.5542 135.744C81.6342 135.744 90.0822 132.336 96.8982 125.52C103.81 118.608 107.266 109.968 107.266 99.6C107.266 89.232 103.81 80.64 96.8982 73.824C90.0822 66.912 81.6342 63.456 71.5542 63.456C61.4742 63.456 52.9782 66.912 46.0662 73.824C39.2502 80.64 35.8422 89.232 35.8422 99.6C35.8422 109.968 39.2502 118.608 46.0662 125.52ZM250.964 150H231.236L191.492 102.048V150H174.932V49.2H191.492V94.416L229.796 49.2H249.524L208.772 98.304L250.964 150ZM337.359 136.752C327.279 146.832 314.943 151.872 300.351 151.872C285.759 151.872 273.375 146.832 263.199 136.752C253.119 126.576 248.079 114.192 248.079 99.6C248.079 85.008 253.119 72.672 263.199 62.592C273.375 52.416 285.759 47.328 300.351 47.328C314.943 47.328 327.279 52.416 337.359 62.592C347.535 72.672 352.623 85.008 352.623 99.6C352.623 114.192 347.535 126.576 337.359 136.752ZM274.863 125.52C281.775 132.336 290.271 135.744 300.351 135.744C310.431 135.744 318.879 132.336 325.695 125.52C332.607 118.608 336.063 109.968 336.063 99.6C336.063 89.232 332.607 80.64 325.695 73.824C318.879 66.912 310.431 63.456 300.351 63.456C290.271 63.456 281.775 66.912 274.863 73.824C268.047 80.64 264.639 89.232 264.639 99.6C264.639 109.968 268.047 118.608 274.863 125.52ZM464.208 49.2V150H447.648V78.144L416.976 128.832H414.96L384.288 78V150H367.728V49.2H385.584L415.968 99.6L446.496 49.2H464.208ZM558.467 49.2V150H541.907V65.04H500.867V150H484.307V49.2H558.467ZM644.33 150L637.274 129.696H594.362L587.306 150H569.306L605.882 49.2H625.754L662.186 150H644.33ZM599.834 114.144H631.802L615.818 68.64L599.834 114.144ZM732.785 49.2H749.345V150H732.785V106.368H689.585V150H673.025V49.2H689.585V90.528H732.785V49.2ZM829.974 150V81.6L782.454 150H769.494V49.2H786.054V117.6L833.574 49.2H846.534V150H829.974ZM927.146 150V81.6L879.626 150H866.666V49.2H883.226V117.6L930.746 49.2H943.706V150H927.146Z" fill="white"/>
<rect x="435" y="31" width="9" height="157" fill="#E21C2B"/>
</svg>
